# xmcd CD database file
#
# Track frame offsets:
#	150
#	16962
#	32347
#	49722
#	69747
#	84910
#	101547
#	118612
#	139202
#	155195
#
# Disc length: 2284 seconds
#
# Revision: 1
# Processed by: cddbd v1.5.2PL0 Copyright (c) Steve Scherf et al.
# Submitted via: CDex 1.70beta3
#
DISCID=7d08ea0a
DTITLE=Michael O'brien - Michael O'brien
DYEAR=1990
DGENRE=Melodic Rock
TTITLE0=Here We Go
TTITLE1=Matter Of Time
TTITLE2=I'm Over You
TTITLE3=I Believe
TTITLE4=Hold Your Head Up
TTITLE5=Today Is The Day
TTITLE6=Wait For You
TTITLE7=Why
TTITLE8=I Know
TTITLE9=Everything To Me
EXTD=YEAR: 1990
EXTT0=
EXTT1=
EXTT2=
EXTT3=
EXTT4=
EXTT5=
EXTT6=
EXTT7=
EXTT8=
EXTT9=
PLAYORDER=
